External Loads File
version=1
nRows=62
nColumns=13
Range=5.000000e-03-10 seconds
endheader
time 	forceRightX 	forceRightY 	forceRightZ 	pointRightX 	pointRightY 	pointRightZ 	forceLeftX 	forceLeftY 	forceLeftZ 	pointLeftX 	pointLeftY 	pointLeftZ 		
2.505000 95.434843 745.244467 -0.000000 0.334977 0.168236 -0.146495 -50.986846 -100.827086 -0.000000 0.199629 0.491865 -0.377569
2.510000 155.290262 706.823039 -0.000000 0.327752 0.164241 -0.146261 -64.350537 -93.906518 -0.000000 0.207446 0.496241 -0.377590
2.515000 128.933714 684.795523 -0.000000 0.320292 0.160695 -0.146021 -65.963165 -91.090501 -0.000000 0.215456 0.500111 -0.377520
2.520000 171.310120 647.627893 -0.000000 0.312597 0.157675 -0.145803 -76.105658 -77.988951 -0.000000 0.223712 0.503402 -0.377403
2.525000 149.045946 624.291593 -0.000000 0.304754 0.155191 -0.145625 -77.828316 -68.710550 -0.000000 0.231514 0.505957 -0.377386
2.530000 187.080062 582.201867 -0.000000 0.296654 0.153225 -0.145498 -85.259361 -48.218909 -0.000000 0.239616 0.508182 -0.377487
2.535000 167.414260 553.204221 -0.000000 0.288391 0.151854 -0.145481 -87.007024 -32.566573 -0.000000 0.247692 0.509405 -0.377671
2.540000 217.531348 494.879870 -0.000000 0.280000 0.151264 -0.145455 -90.801569 -2.030793 -0.000000 0.255551 0.510350 -0.378116
2.545000 197.001134 458.680544 -0.000000 0.271605 0.151197 -0.145332 -92.050838 19.452975 -0.000000 0.263324 0.510567 -0.378465
2.550000 222.202192 396.296631 -0.000000 0.263173 0.151802 -0.145259 -89.542227 53.624733 -0.000000 0.271155 0.510093 -0.378455
2.555000 200.142065 354.514155 -0.000000 0.254810 0.152971 -0.145254 -91.561184 80.665219 -0.000000 0.278624 0.509156 -0.378739
2.560000 222.419904 281.855596 -0.000000 0.246502 0.154694 -0.145357 -79.444380 122.941223 -0.000000 0.285816 0.507617 -0.379220
2.565000 197.897595 241.119065 -0.000000 0.238152 0.157057 -0.145565 -83.088024 155.662769 -0.000000 0.292867 0.504164 -0.379541
2.570000 194.681916 183.569927 -0.000000 0.229855 0.159975 -0.145758 -72.122355 198.629097 -0.000000 0.299608 0.500887 -0.380001
2.575000 172.332393 148.759577 -0.000000 0.221603 0.163393 -0.145995 -81.823159 236.383166 -0.000000 0.306165 0.496978 -0.380498
2.580000 161.920805 106.085330 -0.000000 0.213466 0.167302 -0.146145 -77.312893 281.722362 -0.000000 0.312596 0.492259 -0.380999
2.585000 145.664900 80.290486 -0.000000 0.205395 0.171638 -0.146247 -96.087410 322.535026 -0.000000 0.318928 0.487015 -0.381433
2.590000 140.264403 41.333249 -0.000000 0.197375 0.176457 -0.146337 -72.643846 375.688093 -0.000000 0.325278 0.481086 -0.381836
2.595000 129.956384 27.253134 -0.000000 0.189643 0.181651 -0.146310 -100.245014 417.884692 -0.000000 0.331617 0.474622 -0.382193
2.600000 124.769965 2.352945 -0.000000 0.182165 0.187456 -0.146498 -76.619162 470.920354 -0.000000 0.337873 0.468901 -0.382476
2.605000 120.712951 -2.147039 -0.000000 0.175064 0.193568 -0.146663 -112.351888 511.891335 -0.000000 0.344037 0.461948 -0.382600
2.610000 117.837128 -17.828992 -0.000000 0.168376 0.200169 -0.146707 -84.348781 563.701358 -0.000000 0.350008 0.454395 -0.382735
2.615000 117.990009 -15.665892 -0.000000 0.162212 0.207163 -0.146641 -126.242050 601.144945 -0.000000 0.355725 0.446715 -0.382779
2.620000 116.835153 -25.098468 -0.000000 0.156523 0.214495 -0.146745 -97.143396 649.298468 -0.000000 0.361063 0.438620 -0.382711
2.625000 118.572201 -18.891995 -0.000000 0.151327 0.222082 -0.146810 -145.366321 681.237941 -0.000000 0.366677 0.430179 -0.382999
2.630000 119.793132 -11.672862 -0.000000 0.146581 0.230227 -0.146871 -197.022087 707.440482 -0.000000 0.371706 0.421383 -0.383110
2.635000 119.094685 -16.102238 -0.000000 0.142263 0.238680 -0.146736 -176.630129 749.322036 -0.000000 0.376449 0.412283 -0.383215
2.640000 117.178705 -23.207280 -0.000000 0.138458 0.247404 -0.146948 -133.925161 791.615672 -0.000000 0.380900 0.402748 -0.383318
2.645000 117.110523 -15.768006 -0.000000 0.135162 0.256317 -0.146965 -189.772987 811.187058 -0.000000 0.384980 0.393054 -0.383469
2.650000 114.065018 -22.520761 -0.000000 0.132260 0.265538 -0.147016 -150.267363 847.091630 -0.000000 0.388665 0.383218 -0.383611
2.655000 112.409539 -16.974856 -0.000000 0.129751 0.275044 -0.147090 -207.229743 859.860495 -0.000000 0.391880 0.373134 -0.383741
2.660000 107.118589 -26.648696 -0.000000 0.127678 0.284693 -0.147198 -153.219722 892.633901 -0.000000 0.394662 0.363036 -0.383833
2.665000 103.680436 -23.904990 -0.000000 0.126085 0.294599 -0.147312 -209.780475 900.102097 -0.000000 0.396998 0.352895 -0.383986
2.670000 96.412752 -32.837007 -0.000000 0.124962 0.304779 -0.147431 -174.407624 924.170518 -0.000000 0.398935 0.342948 -0.384090
2.675000 91.101683 -33.248525 -0.000000 0.124154 0.315028 -0.147648 -231.324230 926.412071 -0.000000 0.400327 0.332433 -0.384229
2.680000 80.506236 -44.977089 -0.000000 0.123880 0.325530 -0.147798 -180.597948 950.622696 -0.000000 0.401277 0.321704 -0.384327
2.685000 74.004800 -47.940137 -0.000000 0.124032 0.336152 -0.148013 -239.309893 949.234252 -0.000000 0.401624 0.311419 -0.384333
2.690000 60.393204 -60.456363 -0.000000 0.124612 0.346874 -0.148205 -173.984675 973.363566 -0.000000 0.401719 0.301280 -0.384672
2.695000 53.872278 -64.908723 -0.000000 0.125543 0.357411 -0.148379 -228.912709 970.411154 -0.000000 0.400915 0.291186 -0.384336
2.700000 40.078602 -74.572083 -0.000000 0.126940 0.368041 -0.148632 -172.026849 988.551185 -0.000000 0.399715 0.281310 -0.384247
2.705000 34.964038 -78.231848 -0.000000 0.128821 0.378482 -0.148682 -222.887363 982.493696 -0.000000 0.397969 0.271544 -0.384168
2.710000 20.379765 -84.130151 -0.000000 0.131194 0.388816 -0.148897 -143.590229 998.436666 -0.000000 0.395590 0.262004 -0.384059
2.715000 17.250694 -84.792246 -0.000000 0.134303 0.398838 -0.149259 -186.942303 989.206808 -0.000000 0.392715 0.252762 -0.383933
2.720000 6.959835 -84.867525 -0.000000 0.137356 0.408625 -0.149171 -129.219475 992.783826 -0.000000 0.389255 0.243607 -0.383836
2.725000 6.164445 -82.133439 -0.000000 0.141551 0.418071 -0.149498 -165.584573 977.953240 -0.000000 0.385276 0.234919 -0.383753
2.730000 -3.096336 -78.343872 -0.000000 0.146059 0.427345 -0.150003 -83.802282 975.308492 -0.000000 0.380769 0.226381 -0.383677
2.735000 -2.163306 -73.638875 -0.000000 0.150918 0.436204 -0.150311 -114.907014 955.601229 -0.000000 0.375808 0.218198 -0.383595
2.740000 -9.658472 -67.849680 -0.000000 0.156109 0.444731 -0.150595 -26.833402 942.601662 -0.000000 0.370412 0.210420 -0.383476
2.745000 -8.535337 -62.631851 -0.000000 0.161363 0.452858 -0.151019 -55.130439 919.146179 -0.000000 0.364600 0.203088 -0.383368
2.750000 -15.149983 -55.687521 -0.000000 0.167807 0.460512 -0.151044 26.397479 895.884889 -0.000000 0.358370 0.196140 -0.383234
2.755000 -15.689222 -49.483565 -0.000000 0.174060 0.467675 -0.151539 -0.691096 869.665669 -0.000000 0.351765 0.189705 -0.383093
2.760000 -23.012090 -39.617368 -0.000000 0.180814 0.474522 -0.151929 76.808418 837.633149 -0.000000 0.344834 0.183689 -0.382957
2.765000 -26.421242 -30.178746 -0.000000 0.188030 0.480511 -0.152148 51.576619 809.127997 -0.000000 0.337603 0.178206 -0.382817
2.770000 -33.663164 -15.375632 -0.000000 0.195715 0.486135 -0.152448 105.271419 771.292142 -0.000000 0.330053 0.173220 -0.382732
2.775000 -40.069850 -1.159990 -0.000000 0.203638 0.491145 -0.152708 78.374564 739.824648 -0.000000 0.322207 0.168688 -0.382607
2.780000 -46.378948 20.850798 -0.000000 0.211836 0.495478 -0.152855 140.470440 692.945189 -0.000000 0.314062 0.164636 -0.382560
2.785000 -54.571398 39.480120 -0.000000 0.220290 0.499884 -0.153127 115.621004 657.203770 -0.000000 0.305686 0.161198 -0.382447
2.790000 -56.821308 65.980677 -0.000000 0.228869 0.502653 -0.153341 166.693862 601.688313 -0.000000 0.297103 0.158396 -0.382453
2.795000 -65.780515 85.904643 -0.000000 0.237408 0.505187 -0.153626 140.993090 560.458800 -0.000000 0.288247 0.156218 -0.382439
2.800000 -62.694351 113.418012 -0.000000 0.245913 0.507196 -0.153989 180.649746 496.091041 -0.000000 0.279194 0.154533 -0.382370
2.805000 -71.824939 132.463675 -0.000000 0.254353 0.508677 -0.154450 156.717987 448.139759 -0.000000 0.269993 0.153586 -0.382304
2.810000 -63.240704 159.256364 -0.000000 0.262664 0.509259 -0.154888 183.788760 376.507715 -0.000000 0.260710 0.153483 -0.382260
